<mxfile host="app.diagrams.net" modified="2021-08-03T07:32:07.977Z" agent="5.0 (Macintosh; Intel Mac OS X 10_15_7) AppleWebKit/537.36 (KHTML, like Gecko) Chrome/91.0.4472.114 Safari/537.36" etag="GBlXrJySItR9_VtVOPAZ" version="14.6.13" type="github">
  <diagram id="DC3t7FKsI6gMT1lBSD-O" name="Page-1">
    <mxGraphModel dx="2066" dy="1074" grid="1" gridSize="10" guides="1" tooltips="1" connect="1" arrows="1" fold="1" page="1" pageScale="1" pageWidth="827" pageHeight="1169" math="0" shadow="0">
      <root>
        <mxCell id="0" />
        <mxCell id="1" parent="0" />
        <mxCell id="-8tuaK7xDPwZjtJdpJcr-10" style="edgeStyle=orthogonalEdgeStyle;rounded=0;sketch=1;orthogonalLoop=1;jettySize=auto;html=1;shadow=1;fontSize=16;" edge="1" parent="1" source="-8tuaK7xDPwZjtJdpJcr-1" target="-8tuaK7xDPwZjtJdpJcr-6">
          <mxGeometry relative="1" as="geometry" />
        </mxCell>
        <mxCell id="-8tuaK7xDPwZjtJdpJcr-1" value="JSElement" style="html=1;fontSize=16;shadow=1;sketch=1;" vertex="1" parent="1">
          <mxGeometry x="120" y="210" width="110" height="50" as="geometry" />
        </mxCell>
        <mxCell id="-8tuaK7xDPwZjtJdpJcr-2" value="Extends" style="endArrow=block;endSize=16;endFill=0;html=1;fontSize=16;shadow=1;sketch=1;" edge="1" parent="1" source="-8tuaK7xDPwZjtJdpJcr-1">
          <mxGeometry width="160" relative="1" as="geometry">
            <mxPoint x="230" y="235" as="sourcePoint" />
            <mxPoint x="390" y="235" as="targetPoint" />
          </mxGeometry>
        </mxCell>
        <mxCell id="-8tuaK7xDPwZjtJdpJcr-3" value="JSNode" style="html=1;fontSize=16;shadow=1;sketch=1;" vertex="1" parent="1">
          <mxGeometry x="390" y="210" width="110" height="50" as="geometry" />
        </mxCell>
        <mxCell id="-8tuaK7xDPwZjtJdpJcr-4" value="JSEventTarget" style="html=1;fontSize=16;shadow=1;sketch=1;" vertex="1" parent="1">
          <mxGeometry x="660" y="210" width="150" height="50" as="geometry" />
        </mxCell>
        <mxCell id="-8tuaK7xDPwZjtJdpJcr-5" value="Extends" style="endArrow=block;endSize=16;endFill=0;html=1;fontSize=16;shadow=1;sketch=1;" edge="1" parent="1">
          <mxGeometry width="160" relative="1" as="geometry">
            <mxPoint x="500" y="234.5" as="sourcePoint" />
            <mxPoint x="660" y="234.5" as="targetPoint" />
          </mxGeometry>
        </mxCell>
        <mxCell id="-8tuaK7xDPwZjtJdpJcr-6" value="ElementInstance" style="html=1;fontSize=16;shadow=1;sketch=1;" vertex="1" parent="1">
          <mxGeometry x="100" y="330" width="150" height="50" as="geometry" />
        </mxCell>
        <mxCell id="-8tuaK7xDPwZjtJdpJcr-7" value="NodeInstance" style="html=1;fontSize=16;shadow=1;sketch=1;" vertex="1" parent="1">
          <mxGeometry x="360" y="330" width="150" height="50" as="geometry" />
        </mxCell>
        <mxCell id="-8tuaK7xDPwZjtJdpJcr-8" value="HotClass" style="html=1;fontSize=16;shadow=1;sketch=1;" vertex="1" parent="1">
          <mxGeometry x="980" y="210" width="150" height="50" as="geometry" />
        </mxCell>
        <mxCell id="-8tuaK7xDPwZjtJdpJcr-9" value="Extends" style="endArrow=block;endSize=16;endFill=0;html=1;fontSize=16;shadow=1;sketch=1;" edge="1" parent="1">
          <mxGeometry width="160" relative="1" as="geometry">
            <mxPoint x="810" y="234.5" as="sourcePoint" />
            <mxPoint x="970" y="234.5" as="targetPoint" />
          </mxGeometry>
        </mxCell>
        <mxCell id="-8tuaK7xDPwZjtJdpJcr-11" value="EventTargetInstance" style="html=1;fontSize=16;shadow=1;sketch=1;" vertex="1" parent="1">
          <mxGeometry x="630" y="330" width="180" height="50" as="geometry" />
        </mxCell>
      </root>
    </mxGraphModel>
  </diagram>
</mxfile>
